<svg xmlns="http://www.w3.org/2000/svg" width="47.484" height="47.512" viewBox="0 0 47.484 47.512">
  <g id="restaurant_1_" data-name="restaurant (1)" transform="translate(-0.153)">
    <g id="Group_305" data-name="Group 305" transform="translate(2.796)">
      <g id="Group_304" data-name="Group 304">
        <path id="Path_2224" data-name="Path 2224" d="M72.255,40.4l-18.63-18.63L31.858,0h-1.7L29.81.883a15.605,15.605,0,0,0-1.133,6.89A9.732,9.732,0,0,0,31.4,13.988L48.4,30.98l2.241-2.241L66.347,46.305A4.178,4.178,0,0,0,72.255,40.4Z" transform="translate(-28.636)" fill="#519259"/>
      </g>
    </g>
    <g id="Group_307" data-name="Group 307" transform="translate(0.153 27.045)">
      <g id="Group_306" data-name="Group 306" transform="translate(0)">
        <path id="Path_2225" data-name="Path 2225" d="M14.683,291.442,1.375,304.75a4.178,4.178,0,1,0,5.908,5.908L20.591,297.35Z" transform="translate(-0.153 -291.442)" fill="#febd2e"/>
      </g>
    </g>
    <g id="Group_309" data-name="Group 309" transform="translate(25.598 0.033)">
      <g id="Group_308" data-name="Group 308">
        <path id="Path_2226" data-name="Path 2226" d="M294.389,8.238l-7.549,7.549-1.969-1.969,7.549-7.549L290.45,4.3,282.9,11.849l-1.969-1.969,7.549-7.549L286.512.361l-9.847,9.847a6.951,6.951,0,0,0-2.026,4.5,4.012,4.012,0,0,1-.285,1.257l6.4,6.4a4.008,4.008,0,0,1,1.257-.285,6.949,6.949,0,0,0,4.5-2.025l9.847-9.847Z" transform="translate(-274.354 -0.361)" fill="#febd2e"/>
      </g>
    </g>
  </g>
</svg>
